<svg width="72" height="31" viewBox="0 0 72 31" fill="none" xmlns="http://www.w3.org/2000/svg">
<path d="M58.8649 11.9823L59.8961 15.7197C59.95 15.907 60.0755 16.0655 60.2456 16.1607C60.4156 16.256 60.6163 16.2803 60.8041 16.2285L65.1618 15.0261L63.9359 10.5831L58.8649 11.9823ZM66.4335 14.6752L70.7912 13.4728C70.9791 13.421 71.1389 13.2971 71.236 13.1282C71.3331 12.9592 71.3597 12.7588 71.3099 12.5703L70.2786 8.83296L65.2076 10.2322L66.4335 14.6752ZM69.1023 2.33193L67.6756 2.7256C67.7398 2.38847 67.7267 2.04116 67.6373 1.70982C67.4727 1.12153 67.0817 0.622428 66.5499 0.321858C66.0181 0.0212884 65.3889 -0.0562457 64.8 0.106241C64.1929 0.305154 63.6544 0.67175 63.2468 1.16369C62.8392 1.65562 62.579 2.25283 62.4964 2.88634C62.1006 2.38484 61.571 2.00554 60.9688 1.79224C60.3666 1.57895 59.7163 1.54035 59.0931 1.68092C58.5043 1.8434 58.0038 2.23265 57.7014 2.76341C57.3989 3.29416 57.3192 3.92315 57.4796 4.51258C57.5728 4.8429 57.7396 5.14778 57.9677 5.40426L56.5409 5.79793C56.1532 5.90491 55.9693 6.44797 56.1234 7.00625L56.9642 10.0535C57.1182 10.6118 57.5546 10.9837 57.9423 10.8767L63.5872 9.31919L62.1858 4.24037L63.4574 3.88949L64.8588 8.96831L70.5037 7.41075C70.8914 7.30377 71.0753 6.76071 70.9212 6.20243L70.0804 3.15514C69.9264 2.59686 69.49 2.22496 69.1023 2.33193ZM59.9682 4.85227C59.8395 4.90061 59.7022 4.92162 59.565 4.91395C59.4278 4.90628 59.2936 4.87011 59.1712 4.80773C59.0487 4.74536 58.9406 4.65815 58.8537 4.55167C58.7668 4.44519 58.703 4.32177 58.6664 4.18928C58.6299 4.05679 58.6213 3.91814 58.6413 3.78216C58.6613 3.64619 58.7094 3.51587 58.7826 3.39951C58.8557 3.28316 58.9523 3.18333 59.0662 3.10637C59.1801 3.02942 59.3088 2.97703 59.444 2.95256C60.5295 2.65303 61.4502 3.60057 61.9687 4.30028L59.9682 4.85227ZM65.6751 3.27759L63.6745 3.82959C63.763 2.97075 64.0653 1.67741 65.1509 1.37788C65.2795 1.32954 65.4169 1.30853 65.5541 1.3162C65.6913 1.32387 65.8254 1.36005 65.9479 1.42242C66.0704 1.4848 66.1785 1.57201 66.2654 1.67849C66.3523 1.78497 66.4161 1.90839 66.4526 2.04088C66.4892 2.17336 66.4977 2.31202 66.4777 2.44799C66.4577 2.58397 66.4096 2.71429 66.3365 2.83064C66.2633 2.94699 66.1667 3.04683 66.0528 3.12378C65.939 3.20074 65.8103 3.25312 65.6751 3.27759Z" fill="#ABD5C5"/>
<path d="M9.29297 25.4102C8.62891 25.4102 8.10547 25.2969 7.72266 25.0703C7.18359 24.7578 6.91406 24.2773 6.91406 23.6289C6.91406 23.1992 7.01562 22.7344 7.21875 22.2344C7.51562 22.5547 7.78906 22.7812 8.03906 22.9141C8.28906 23.0391 8.55469 23.1016 8.83594 23.1016C9.63281 23.1016 10.2461 22.6094 10.6758 21.625C10.8555 21.2266 10.9883 20.7773 11.0742 20.2773C11.1602 19.7695 11.2031 19.2734 11.2031 18.7891C11.2031 17.8672 11.043 17.1484 10.7227 16.6328C10.3398 16.0312 9.74219 15.7305 8.92969 15.7305C8.5 15.7305 8.13281 15.7578 7.82812 15.8125L5.85938 25H2.40234L5.66016 9.73047L9.21094 9.26172L8.08594 14.582H8.22656C8.6875 14.582 9.12891 14.4688 9.55078 14.2422C9.97266 14.0156 10.3438 13.707 10.6641 13.3164C10.9766 12.9336 11.2227 12.5117 11.4023 12.0508C11.5898 11.5898 11.6836 11.1367 11.6836 10.6914C11.6836 10.3477 11.6211 10.0234 11.4961 9.71875C11.3789 9.40625 11.1992 9.13281 10.957 8.89844C10.4023 8.36719 9.58984 8.10156 8.51953 8.10156C7.53516 8.10156 6.60156 8.3125 5.71875 8.73438C4.73438 9.21094 3.98047 9.85547 3.45703 10.668C2.83203 11.6133 2.51953 12.7031 2.51953 13.9375C2.51953 14.4531 2.57812 14.8516 2.69531 15.1328C2.72656 15.2344 2.76562 15.3242 2.8125 15.4023C2.84375 15.457 2.85938 15.5117 2.85938 15.5664C2.00781 15.5664 1.36719 15.3984 0.9375 15.0625C0.507812 14.7188 0.292969 14.1523 0.292969 13.3633C0.292969 12.2695 0.710938 11.2266 1.54688 10.2344C1.9375 9.76562 2.40234 9.33594 2.94141 8.94531C3.48828 8.54688 4.08594 8.20312 4.73438 7.91406C6.10156 7.30469 7.52344 7 9 7C10.6484 7 11.9414 7.39062 12.8789 8.17188C13.2852 8.51562 13.5898 8.91797 13.793 9.37891C14.0039 9.83203 14.1094 10.3125 14.1094 10.8203C14.1094 11.5781 13.9062 12.2812 13.5 12.9297C13.0469 13.6484 12.4492 14.2148 11.707 14.6289C12.668 14.8008 13.3984 15.2656 13.8984 16.0234C14.3281 16.6875 14.543 17.5117 14.543 18.4961C14.543 18.9023 14.5039 19.3516 14.4258 19.8438C14.3477 20.3359 14.2305 20.8242 14.0742 21.3086C13.6914 22.5117 13.1484 23.4531 12.4453 24.1328C11.5703 24.9844 10.5195 25.4102 9.29297 25.4102Z" fill="#037546"/>
<path d="M17.7773 25.1406C17.0117 25.1406 16.4062 24.9141 15.9609 24.4609C15.4609 23.9609 15.2109 23.2305 15.2109 22.2695C15.2109 21.8164 15.2734 21.293 15.3984 20.6992L17.0273 13H20.4844L18.7617 21.1562C18.7148 21.3984 18.6914 21.625 18.6914 21.8359C18.6914 22.4922 18.9297 22.8203 19.4062 22.8203C19.8438 22.8203 20.2383 22.6211 20.5898 22.2227C20.8711 21.8867 21.1172 21.3789 21.3281 20.6992L22.957 13H26.4141L24.6914 21.1562C24.6211 21.3906 24.5859 21.6484 24.5859 21.9297C24.5859 22.2578 24.6641 22.4883 24.8203 22.6211C24.9766 22.7539 25.2266 22.8203 25.5703 22.8203C26.0156 22.8203 26.4141 22.6211 26.7656 22.2227C27.0781 21.8711 27.3281 21.3633 27.5156 20.6992H28.5234C28.0938 21.918 27.5742 22.8828 26.9648 23.5938C26.4492 24.1797 25.8672 24.6016 25.2188 24.8594C24.7422 25.0469 24.2383 25.1406 23.707 25.1406C23.0195 25.1406 22.4727 24.9492 22.0664 24.5664C21.6602 24.1836 21.4141 23.6172 21.3281 22.8672C20.7812 23.7422 20.1641 24.3672 19.4766 24.7422C18.9844 25.0078 18.418 25.1406 17.7773 25.1406Z" fill="#037546"/>
<path d="M31.2539 31C30.8789 31 30.5273 30.9492 30.1992 30.8477C29.8789 30.7539 29.6016 30.6094 29.3672 30.4141C29.1172 30.2188 28.9219 29.9727 28.7812 29.6758C28.6406 29.3867 28.5703 29.0508 28.5703 28.668C28.5703 27.7617 28.9961 26.9844 29.8477 26.3359C30.4883 25.8594 31.3672 25.4453 32.4844 25.0938L32.7773 23.8047C32.3086 24.3203 31.8008 24.6836 31.2539 24.8945C30.832 25.0586 30.3789 25.1406 29.8945 25.1406C29.1289 25.1406 28.5234 24.9141 28.0781 24.4609C27.5781 23.9609 27.3281 23.2305 27.3281 22.2695C27.3281 21.8164 27.3906 21.293 27.5156 20.6992L29.1445 13H32.6016L30.8789 21.1562C30.832 21.3516 30.8086 21.5547 30.8086 21.7656C30.8086 22.0703 30.8594 22.3125 30.9609 22.4922C31.0781 22.7109 31.2656 22.8203 31.5234 22.8203C31.9453 22.8203 32.3242 22.6328 32.6602 22.2578C32.9492 21.9375 33.1953 21.4688 33.3984 20.8516L35.0742 13H38.5312L36.1523 24.1328C36.9102 23.8828 37.5156 23.5078 37.9688 23.0078C38.4609 22.4688 38.8633 21.6992 39.1758 20.6992H40.1836C39.7539 22.1211 39.1133 23.2188 38.2617 23.9922C37.6367 24.5547 36.8633 24.9531 35.9414 25.1875L35.5781 26.9219C35.2734 28.4531 34.6641 29.5625 33.75 30.25C33.0859 30.75 32.2539 31 31.2539 31ZM30.7031 29.125C30.9453 29.125 31.2031 28.9492 31.4766 28.5977C31.7422 28.2539 31.9492 27.7188 32.0977 26.9922L32.2383 26.3008C31.5117 26.5742 30.9688 26.8516 30.6094 27.1328C30.1328 27.4922 29.8945 27.8945 29.8945 28.3398C29.8945 28.5508 29.9609 28.7266 30.0938 28.8672C30.2422 29.0391 30.4453 29.125 30.7031 29.125Z" fill="#037546"/>
<path d="M44.918 8.69922C43.8398 9.14453 43.0117 9.80859 42.4336 10.6914C41.8555 11.5742 41.5664 12.6562 41.5664 13.9375C41.5664 14.4375 41.6211 14.8359 41.7305 15.1328C41.7617 15.2344 41.8008 15.3242 41.8477 15.4023C41.8789 15.457 41.8945 15.5117 41.8945 15.5664C41.0273 15.5664 40.3945 15.3945 39.9961 15.0508C39.5508 14.6758 39.3281 14.0703 39.3281 13.2344C39.3281 12.7109 39.4414 12.1953 39.668 11.6875C39.8945 11.1719 40.2148 10.6758 40.6289 10.1992C41.0195 9.74609 41.4844 9.32422 42.0234 8.93359C42.5703 8.53516 43.1602 8.19141 43.793 7.90234C45.1211 7.30078 46.4414 7 47.7539 7C48.1133 7 48.4336 7.01562 48.7148 7.04688L44.8945 25H41.4492L44.918 8.69922Z" fill="#037546"/>
<path d="M50.5664 25.1406C49.8008 25.1406 49.1953 24.9141 48.75 24.4609C48.25 23.9609 48 23.2305 48 22.2695C48 21.8164 48.0625 21.293 48.1875 20.6992L49.6289 13.9609H48.832L49.0312 13H49.8164L50.543 9.68359L54.0938 9.20312L53.2734 13H54.7148L54.5273 13.9609H53.0859L51.5508 21.1562C51.4883 21.3594 51.457 21.6172 51.457 21.9297C51.457 22.2578 51.5312 22.4883 51.6797 22.6211C51.8359 22.7539 52.0859 22.8203 52.4297 22.8203C52.6641 22.8203 52.8906 22.7695 53.1094 22.668C53.3359 22.5586 53.543 22.4102 53.7305 22.2227C54.1133 21.8398 54.4023 21.332 54.5977 20.6992H55.6055C55.1758 21.9102 54.6367 22.875 53.9883 23.5938C53.4414 24.1797 52.8242 24.6016 52.1367 24.8594C51.6367 25.0469 51.1133 25.1406 50.5664 25.1406Z" fill="#037546"/>
</svg>
